<?xml version="1.0" encoding="UTF-8"?>
<!-- Created with Inkscape (http://www.inkscape.org/) -->
<svg width="90mm" height="24mm" version="1.1" viewBox="0 0 90 24" xmlns="http://www.w3.org/2000/svg">
 <g transform="translate(7.0274 44.753)">
  <g stroke-width=".59443">
   <path d="m38.709-23.55h2.5959v-1.9565c0.33248 0.88234 1.9309 2.2634 3.9897 2.2634 2.9539 0 5.0511-2.2634 5.0511-5.5498 0-3.2736-2.0972-5.5626-5.0511-5.5626-2.225 0-3.7723 1.3938-3.9514 2.1739v-8.9641h-2.6342zm9.0408-5.2429c0 2.0716-1.4322 3.4143-3.1202 3.4143-1.8286 0-3.2864-1.3683-3.2864-3.4143 0-2.0332 1.4578-3.4271 3.2864-3.4271 1.688 0 3.1202 1.3555 3.1202 3.4271zm10.192-5.2557v2.225h1.9949v5.3324c0 2.2378 1.3043 3.248 3.0562 3.248 1.4706 0 2.5319-0.57544 2.6982-0.72889l-0.99743-1.9053c-0.06395 0.07672-0.43477 0.39642-1.023 0.39642-0.72889 0-1.1381-0.54987-1.1381-1.7135v-4.6291h2.6214v-2.225h-2.6214v-4.3094h-2.5959v4.3094zm13.683-0.3069c-2.2506 0-4.2583 1.0742-4.2583 2.9539 0 1.9821 1.7519 2.7877 3.312 3.1457 1.2404 0.28132 2.2122 0.62659 2.2122 1.6112 0 0.86956-0.89512 1.4578-2.2378 1.4578-1.2532 0-2.3529-0.6138-2.7877-1.0358l-0.98464 1.8286c0.47314 0.39642 1.8798 1.1509 3.9514 1.1509 2.2506 0 4.6802-0.84398 4.6802-3.4143 0-2.0588-1.6752-2.7493-3.3503-3.1457-1.3938-0.31968-2.2506-0.75446-2.2506-1.5345 0-0.80562 0.86956-1.2276 1.9821-1.2276 1.0869 0 2.046 0.49871 2.4041 0.79283l0.97186-1.624c-0.42199-0.34526-1.9053-0.95907-3.6444-0.95907z" fill="#1a3b5d" stroke="#1a3b5d" style="mix-blend-mode:color" aria-label="b ts"/>
   <path d="m52.741-38.079v14.836h3.0773v-18.354h-1.6523l-4.8206 2.5445v2.7114z" fill="#1a3b5d" stroke="#1a3b5d" style="mix-blend-mode:color" aria-label="1"/>
   <path d="m0.49554-34.048v2.225h1.9949v5.3324c0 2.2378 1.3043 3.248 3.0562 3.248 1.4706 0 2.5319-0.57544 2.6982-0.72889l-0.99743-1.9053c-0.063935 0.07672-0.43478 0.39641-1.023 0.39641-0.72889 0-1.1381-0.54986-1.1381-1.7135v-4.6291h2.6214v-2.225h-2.6214v-4.3094h-2.5959v4.3094zm28.081 0v2.225h1.9949v5.3324c0 2.2378 1.3043 3.248 3.0562 3.248 1.4706 0 2.5319-0.57544 2.6982-0.72889l-0.99743-1.9053c-0.06394 0.07672-0.43478 0.39641-1.023 0.39641-0.72889 0-1.1381-0.54986-1.1381-1.7135v-4.6291h2.6214v-2.225h-2.6214v-4.3094h-2.5959v4.3094z" fill="#00d0d0" stroke="#00d0d0" style="mix-blend-mode:color" aria-label="t   t"/>
   <path d="m10.733-32.74c0 6.6881 3.7898 9.4968 7.6857 9.4968 3.9262 0 7.6705-2.8087 7.6705-9.4968 0-6.4934-3.7443-9.5246-7.6705-9.5246-3.8959 0-7.6857 3.0312-7.6857 9.5246zm3.0925 0c0-4.5746 2.0162-7.0079 4.5932-7.0079 2.5922 0 4.578 2.4194 4.578 7.0079 0 4.6997-1.9858 6.98-4.578 6.98-2.577 0-4.5932-2.2803-4.5932-6.98z" fill="#00d0d0" stroke="#00d0d0" style="mix-blend-mode:color;paint-order:markers fill stroke" aria-label="0"/>
  </g>
  <path d="m-0.99597-21.315q0.1845 0 0.25369-0.06917 0.069186-0.04614 0.069186-0.23062l-0.023062-1.1531 0.023062-1.1531q0-0.1845-0.069186-0.25369-0.069186-0.06917-0.25369-0.06917l-2.214-0.02303q-0.43819 0-0.43819-0.369v-0.06917q-0.023062-9.94-0.1845-16.19v-0.06919q0-0.29981 0.29981-0.29981l1.9142-0.02306q0.20756 0 0.32287-0.06919 0.13837-0.06919 0.13837-0.369l-0.023062-0.89943 0.023062-1.1762q0-0.23062-0.069186-0.29981-0.069186-0.09225-0.29981-0.09225-2.2832 0-4.5202 0.16144-0.20756 0.02306-0.29981 0.11531-0.092249 0.06919-0.092249 0.29981l-0.023062 3.2287 0.11531 15.383q0 3.321 0.20756 3.5055 0.20756 0.1845 2.7214 0.1845z" fill="#1a3b5d" stroke-width=".75498" style="mix-blend-mode:color" aria-label="["/>
  <path d="m76.941-21.315q-0.1845 0-0.25369-0.06917-0.06917-0.04614-0.06917-0.23062l0.02303-1.1531-0.02303-1.1531q0-0.1845 0.06917-0.25369 0.06917-0.06917 0.25369-0.06917l2.214-0.02303q0.43818 0 0.43818-0.369v-0.06917q0.02303-9.9399 0.1845-16.19v-0.06918q0-0.29981-0.29981-0.29981l-1.9142-0.02306q-0.20756 0-0.32288-0.06919-0.13838-0.06919-0.13838-0.369l0.02303-0.89943-0.02303-1.1762q0-0.23062 0.06917-0.29981 0.06917-0.09225 0.29981-0.09225 2.2832 0 4.5202 0.16144 0.20756 0.02306 0.29981 0.11531 0.09225 0.06919 0.09225 0.29981l0.02303 3.2287-0.11531 15.383q0 3.321-0.20756 3.5055-0.20756 0.1845-2.7214 0.1845z" fill="#1a3b5d" stroke-width=".75498" style="mix-blend-mode:color" aria-label="["/>
 </g>
</svg>
